<?xml version="1.0" encoding="UTF-8"?>
<svg width="180px" height="131px" viewBox="0 0 180 131" version="1.1" xmlns="http://www.w3.org/2000/svg" xmlns:xlink="http://www.w3.org/1999/xlink">
    <!-- Generator: Sketch 50.2 (55047) - http://www.bohemiancoding.com/sketch -->
    <title>bird </title>
    <desc>Created with Sketch.</desc>
    <defs></defs>
    <g id="Page-1" stroke="none" stroke-width="1" fill="none" fill-rule="evenodd">
        <g id="Artboard" transform="translate(-12.000000, -20.000000)" fill="#000000">
            <g id="bird-" transform="translate(112.000000, 64.500000) scale(-1, 1) rotate(-25.000000) translate(-112.000000, -64.500000) translate(13.000000, 12.000000)">
                <path d="M97.5360417,100.273238 C130.663329,90.2079293 168.490322,94.3098749 171.348642,77.7447812 C174.206963,61.1796875 145.616357,51 103.414045,51 C61.2117334,51 27,65.5552871 27,83.5 C27,88.2491687 27.6719707,91.1868093 31.5351391,94.3475442 C43.4724402,104.114306 72.5082793,107.877608 97.5360417,100.273238 Z" id="Oval"></path>
                <path d="M91.7304688,0.3984375 C108.481892,6.89169594 118.935017,15.1241178 123.089844,25.0957031 C127.244671,35.0672884 131.88139,48.7020541 137,66 L67,66 C76.8429677,55.6573048 82.8084625,47.7165496 84.8964844,42.1777344 C86.9845062,36.6389191 89.262501,22.7124868 91.7304688,0.3984375 Z" id="Triangle"></path>
                <path d="M40.678168,45.3107591 C40.2019463,59.7374487 40.2679036,69.9587545 40.87604,75.9746763 C41.762726,84.7461191 46.1796155,91.0089794 46.0417346,98.9081668 C45.7902744,113.314316 49.5725025,123.448513 57.3884188,129.310759 C48.8092923,125.480309 43.0282682,123.565083 40.0453464,123.565083 C37.0624246,123.565083 33.9400256,126.684893 30.6781495,132.924513 C32.5794313,120.952938 33.9900958,112.654679 34.9101428,108.029736 C35.8301898,103.404794 37.7528649,82.4984679 40.678168,45.3107591 Z" id="Triangle-2" transform="translate(44.033284, 89.117636) rotate(89.000000) translate(-44.033284, -89.117636) "></path>
                <polygon id="Triangle-2-Copy" transform="translate(175.163095, 78.919607) rotate(89.000000) translate(-175.163095, -78.919607) " points="175.163095 56.9196065 184.700201 100.919607 165.625989 100.919607"></polygon>
            </g>
        </g>
    </g>
</svg>