<?xml version="1.0" encoding="UTF-8"?>
<svg width="163px" height="108px" viewBox="0 0 163 108" version="1.1" xmlns="http://www.w3.org/2000/svg" xmlns:xlink="http://www.w3.org/1999/xlink">
    <!-- Generator: Sketch 50.2 (55047) - http://www.bohemiancoding.com/sketch -->
    <title>bird </title>
    <desc>Created with Sketch.</desc>
    <defs></defs>
    <g id="Page-1" stroke="none" stroke-width="1" fill="none" fill-rule="evenodd">
        <g id="Artboard" transform="translate(-12.000000, -44.000000)" fill="#000000">
            <g id="bird-" transform="translate(99.241214, 76.953396) scale(-1, 1) rotate(-27.000000) translate(-99.241214, -76.953396) translate(8.241214, 36.953396)">
                <path d="M85.7579831,73.0417356 C118.989505,65.6792969 156.935521,68.6797338 159.802835,56.5629184 C162.670149,44.446103 133.989583,37 91.6544817,37 C49.3193805,37 15,47.6467086 15,60.7726696 C15,64.2465287 15.674085,66.3953151 19.5494089,68.7072877 C31.5242707,75.8513489 60.6514709,78.6040796 85.7579831,73.0417356 Z" id="Oval"></path>
                <path d="M79.7304687,0 C96.4818915,4.75105155 106.935017,10.7746314 111.089844,18.0707395 C115.244671,25.3668477 119.88139,35.3432678 125,48 L55,48 C64.8429677,40.4323545 70.8084625,34.6221842 72.8964844,30.5694891 C74.9845062,26.516794 77.262501,16.3269643 79.7304687,0 Z" id="Triangle"></path>
                <path d="M29.1084903,33 C28.627103,43.5383926 28.6937758,51.0048409 29.3085087,55.399345 C30.2048127,61.806699 34.6696129,66.3815865 34.5302365,72.1517763 C34.2760486,82.6751643 38.0993031,90.0779819 46,94.360229 C37.3278143,91.5621656 31.4840824,90.1631339 28.4688044,90.1631339 C25.4535264,90.1631339 22.2972583,92.4420893 19,97 C20.9219054,88.2550166 22.3478715,82.1933134 23.2778984,78.8148904 C24.2079254,75.4364673 26.151456,60.1648372 29.1084903,33 Z" id="Triangle-2" transform="translate(32.500000, 65.000000) rotate(89.000000) translate(-32.500000, -65.000000) "></path>
                <polygon id="Triangle-2-Copy" transform="translate(164.889607, 54.352749) rotate(89.000000) translate(-164.889607, -54.352749) " points="164.889607 38.352749 173.520015 70.352749 156.259198 70.352749"></polygon>
            </g>
        </g>
    </g>
</svg>