<?xml version="1.0" encoding="UTF-8"?>
<svg width="309px" height="171px" viewBox="0 0 309 171" version="1.1" xmlns="http://www.w3.org/2000/svg" xmlns:xlink="http://www.w3.org/1999/xlink">
    <!-- Generator: Sketch 50.2 (55047) - http://www.bohemiancoding.com/sketch -->
    <title>Combined Shape</title>
    <desc>Created with Sketch.</desc>
    <defs></defs>
    <g id="Page-1" stroke="none" stroke-width="1" fill="none" fill-rule="evenodd">
        <g id="Artboard-3" transform="translate(-91.000000, -164.000000)" fill="#949494">
            <path d="M392.024238,335 L97.0545915,335 C93.1540039,331.15204 91,326.929505 91,322.5 C91,304.550746 126.369505,290 170,290 C181.436723,290 192.305829,290.999789 202.119071,292.798504 C202.040177,291.87499 202,290.941718 202,290 C202,270.117749 219.90861,254 242,254 C242.305712,254 242.610623,254.003087 242.914697,254.009227 C236.628521,244.99897 233,234.375438 233,223 C233,190.4152 262.773064,164 299.5,164 C336.226936,164 366,190.4152 366,223 C366,228.023704 365.292313,232.90076 363.960561,237.556977 C385.612196,250.919534 400,274.562273 400,301.5 C400,313.531429 397.129834,324.905553 392.024235,335.000006 Z" id="Combined-Shape"></path>
        </g>
    </g>
</svg>