<?xml version="1.0" encoding="UTF-8"?>
<svg width="345px" height="96px" viewBox="0 0 345 96" version="1.1" xmlns="http://www.w3.org/2000/svg" xmlns:xlink="http://www.w3.org/1999/xlink">
    <!-- Generator: Sketch 50.2 (55047) - http://www.bohemiancoding.com/sketch -->
    <title>Combined Shape</title>
    <desc>Created with Sketch.</desc>
    <defs></defs>
    <g id="Page-1" stroke="none" stroke-width="1" fill="none" fill-rule="evenodd">
        <g id="Artboard-3" transform="translate(-92.000000, -108.000000)" fill="#D8D8D8">
            <path d="M435.013289,204 L92,204 C105.284645,197.461306 131.855151,193 162.46656,193 C163.11965,193 163.770901,193.002031 164.420223,193.006069 C154.613036,184.545993 148.96656,174.618104 148.96656,164 C148.96656,133.072054 196.872092,108 255.96656,108 C315.061029,108 362.96656,133.072054 362.96656,164 C362.96656,165.880224 362.789507,167.738806 362.443652,169.571428 C366.488295,169.196774 370.676544,169 374.96656,169 C409.208215,169 436.96656,181.536027 436.96656,197 C436.96656,199.417097 436.288389,201.762661 435.013289,204 Z" id="Combined-Shape"></path>
        </g>
    </g>
</svg>