<?xml version="1.0" encoding="UTF-8"?>
<svg width="81px" height="249px" viewBox="0 0 81 249" version="1.1" xmlns="http://www.w3.org/2000/svg" xmlns:xlink="http://www.w3.org/1999/xlink">
    <!-- Generator: Sketch 50.2 (55047) - http://www.bohemiancoding.com/sketch -->
    <title>guy</title>
    <desc>Created with Sketch.</desc>
    <defs></defs>
    <g id="Page-1" stroke="none" stroke-width="1" fill="none" fill-rule="evenodd">
        <g id="Desktop" transform="translate(-417.000000, -392.000000)" fill="#000000">
            <g id="guy" transform="translate(417.000000, 392.000000)">
                <path d="M36.1191567,64.6861312 C37.9721782,58.5045556 43.7048307,54 50.4895786,54 C58.7738499,54 65.4895786,60.7157288 65.4895786,69 C65.4895786,75.2247058 61.6979814,80.5638367 56.2983387,82.833841 L72.0769802,115.18485 L73.3922593,115 L73.9611704,119.048013 L74.3960764,119.939702 L74.106349,120.081012 L80.3509144,164.513403 L70.4482337,165.905134 L64.2789183,122.008174 L51.5368144,95.88299 L45.9474208,149.062518 L46.3922593,149 L53.2224675,197.599456 L53.5748924,197.511587 L65.6709872,246.026373 L55.9680299,248.445592 L43.8719351,199.930806 L44.655289,199.735494 L43.4482337,199.905134 L37.5207569,157.728946 L18.3190545,193.842095 L17.9949199,193.66975 L9.84807753,239.872789 L-1.77635684e-14,238.136307 L8.68240888,188.89592 L9.54263229,189.0476 L30.8800026,148.917843 L36.7605387,92.9682791 L19.4002271,50 L18.4895786,50 L18.4895786,0 L28.4895786,0 L28.4895786,45.8022628 L36.1191567,64.6861312 Z M43.1482601,82.0837727 L43.1742427,82.1480818 L43.2849949,82.1597224 C43.2392712,82.1346367 43.1936924,82.1093196 43.1482601,82.0837727 Z"></path>
            </g>
        </g>
    </g>
</svg>