<?xml version="1.0" encoding="UTF-8"?>
<svg width="3108px" height="101px" viewBox="0 0 3108 101" version="1.1" xmlns="http://www.w3.org/2000/svg" xmlns:xlink="http://www.w3.org/1999/xlink">
    <!-- Generator: Sketch 50.2 (55047) - http://www.bohemiancoding.com/sketch -->
    <title>Combined Shape</title>
    <desc>Created with Sketch.</desc>
    <defs>
        <linearGradient x1="50%" y1="0%" x2="50%" y2="97.4078757%" id="linearGradient-1">
            <stop stop-color="#F3FDFF" offset="0%"></stop>
            <stop stop-color="#7FD0EE" offset="100%"></stop>
        </linearGradient>
    </defs>
    <g id="Page-1" stroke="none" stroke-width="1" fill="none" fill-rule="evenodd">
        <g id="Artboard-2" transform="translate(-81.000000, -107.000000)" fill="url(#linearGradient-1)">
            <path d="M2754,107.51814 L2754,107 C2754.91494,107.057581 2755.80453,107.132522 2756.66876,107.224822 C2757.74225,107.128531 2758.85266,107.053591 2760,107 L2760,107.688261 C2766.65326,108.847201 2771.53716,111.217618 2774.65168,114.799512 C2785.11575,126.833855 2792.82575,133.546221 2799.5,133.546221 C2805.99253,133.546221 2811.7652,126.187449 2821.84399,114.799512 C2825.33744,110.852284 2831.38945,108.384152 2840,107.395117 L2840,107 C2840.75513,107.047524 2841.49299,107.106872 2842.21358,107.178045 C2843.11684,107.103925 2844.04564,107.044577 2845,107 L2845,107.525219 C2852.16592,108.615727 2857.38314,111.040492 2860.65168,114.799512 C2871.11575,126.833855 2878.82575,133.546221 2885.5,133.546221 C2891.99253,133.546221 2897.7652,126.187449 2907.84399,114.799512 C2911.47116,110.701196 2917.8565,108.197374 2927,107.288047 L2927,107 C2927.59795,107.037632 2928.18508,107.082678 2928.76137,107.135139 C2929.49127,107.080663 2930.23748,107.035616 2931,107 L2931,107.383365 C2938.68242,108.395744 2944.23298,110.867793 2947.65168,114.799512 C2958.11575,126.833855 2965.82575,133.546221 2972.5,133.546221 C2978.99253,133.546221 2984.7652,126.187449 2994.84399,114.799512 C2998.33744,110.852284 3004.38945,108.384152 3013,107.395117 L3013,107 C3013.75513,107.047524 3014.49299,107.106872 3015.21358,107.178045 C3016.11684,107.103925 3017.04564,107.044577 3018,107 L3018,107.525219 C3025.16592,108.615727 3030.38314,111.040492 3033.65168,114.799512 C3044.11575,126.833855 3051.82575,133.546221 3058.5,133.546221 C3064.99253,133.546221 3070.7652,126.187449 3080.84399,114.799512 C3084.20061,111.006889 3089.91928,108.579765 3098,107.51814 L3098,107 C3098.91494,107.057581 3099.80453,107.132522 3100.66876,107.224822 C3101.74225,107.128531 3102.85266,107.053591 3104,107 L3104,107.688261 C3110.65326,108.847201 3115.53716,111.217618 3118.65168,114.799512 C3129.11575,126.833855 3136.82575,133.546221 3143.5,133.546221 C3149.99253,133.546221 3155.7652,126.187449 3165.84399,114.799512 C3169.97867,110.127769 3177.69734,107.527932 3189,107 L3189,208 L3104,208 L3018,208 L2927,208 L2840,208 L2760,208 L2674,208 L2583,208 L2499,208 L2414,208 L2328,208 L2237,208 L2155,208 L2070,208 L1984,208 L1893,208 L1806,208 L1726,208 L1640,208 L1549,208 L1465,208 L1380,208 L1294,208 L1203,208 L1120,208 L1035,208 L949,208 L858,208 L771,208 L691,208 L605,208 L514,208 L430,208 L345,208 L259,208 L168,208 L81,208 L81,107 C90.7818644,107.615615 97.6657565,110.215452 101.651677,114.799512 C112.115749,126.833855 119.825747,133.546221 126.5,133.546221 C132.992531,133.546221 138.7652,126.187449 148.843985,114.799512 C152.471161,110.701196 158.856499,108.197374 168,107.288047 L168,107 C168.597954,107.037632 169.185078,107.082678 169.761374,107.135139 C170.491271,107.080663 171.237479,107.035616 172,107 L172,107.383365 C179.682419,108.395744 185.232978,110.867793 188.651677,114.799512 C199.115749,126.833855 206.825747,133.546221 213.5,133.546221 C219.992531,133.546221 225.7652,126.187449 235.843985,114.799512 C239.337442,110.852284 245.389447,108.384152 254,107.395117 L254,107 C254.755132,107.047524 255.492993,107.106872 256.213584,107.178045 C257.116837,107.103925 258.045643,107.044577 259,107 L259,107.525219 C266.165917,108.615727 271.383143,111.040492 274.651677,114.799512 C285.115749,126.833855 292.825747,133.546221 299.5,133.546221 C305.992531,133.546221 311.7652,126.187449 321.843985,114.799512 C325.200611,111.006889 330.919282,108.579765 339,107.51814 L339,107 C339.914941,107.057581 340.804529,107.132522 341.668763,107.224822 C342.742246,107.128531 343.852658,107.053591 345,107 L345,107.688261 C351.653265,108.847201 356.537157,111.217618 359.651677,114.799512 C370.115749,126.833855 377.825747,133.546221 384.5,133.546221 C390.992531,133.546221 396.7652,126.187449 406.843985,114.799512 C410.601969,110.553397 417.320641,108.018855 427,107.195888 L427,107 C427.443562,107.027915 427.881164,107.05991 428.312808,107.095986 C428.86604,107.058692 429.428438,107.026697 430,107 L430,107.261188 C438.202496,108.18643 444.086388,110.699205 447.651677,114.799512 C458.115749,126.833855 465.825747,133.546221 472.5,133.546221 C478.992531,133.546221 484.7652,126.187449 494.843985,114.799512 C498.471161,110.701196 504.856499,108.197374 514,107.288047 L514,107 C514.597954,107.037632 515.185078,107.082678 515.761374,107.135139 C516.491271,107.080663 517.237479,107.035616 518,107 L518,107.383365 C525.682419,108.395744 531.232978,110.867793 534.651677,114.799512 C545.115749,126.833855 552.825747,133.546221 559.5,133.546221 C565.992531,133.546221 571.7652,126.187449 581.843985,114.799512 C585.337442,110.852284 591.389447,108.384152 600,107.395117 L600,107 C600.755132,107.047524 601.492993,107.106872 602.213584,107.178045 C603.116837,107.103925 604.045643,107.044577 605,107 L605,107.525219 C612.165917,108.615727 617.383143,111.040492 620.651677,114.799512 C631.115749,126.833855 638.825747,133.546221 645.5,133.546221 C651.992531,133.546221 657.7652,126.187449 667.843985,114.799512 C671.200611,111.006889 676.919282,108.579765 685,107.51814 L685,107 C685.914941,107.057581 686.804529,107.132522 687.668763,107.224822 C688.742246,107.128531 689.852658,107.053591 691,107 L691,107.688261 C697.653265,108.847201 702.537157,111.217618 705.651677,114.799512 C716.115749,126.833855 723.825747,133.546221 730.5,133.546221 C736.992531,133.546221 742.7652,126.187449 752.843985,114.799512 C756.337442,110.852284 762.389447,108.384152 771,107.395117 L771,107 C771.755132,107.047524 772.492993,107.106872 773.213584,107.178045 C774.116837,107.103925 775.045643,107.044577 776,107 L776,107.525219 C783.165917,108.615727 788.383143,111.040492 791.651677,114.799512 C802.115749,126.833855 809.825747,133.546221 816.5,133.546221 C822.992531,133.546221 828.7652,126.187449 838.843985,114.799512 C842.471161,110.701196 848.856499,108.197374 858,107.288047 L858,107 C858.597954,107.037632 859.185078,107.082678 859.761374,107.135139 C860.491271,107.080663 861.237479,107.035616 862,107 L862,107.383365 C869.682419,108.395744 875.232978,110.867793 878.651677,114.799512 C889.115749,126.833855 896.825747,133.546221 903.5,133.546221 C909.992531,133.546221 915.7652,126.187449 925.843985,114.799512 C929.337442,110.852284 935.389447,108.384152 944,107.395117 L944,107 C944.755132,107.047524 945.492993,107.106872 946.213584,107.178045 C947.116837,107.103925 948.045643,107.044577 949,107 L949,107.525219 C956.165917,108.615727 961.383143,111.040492 964.651677,114.799512 C975.115749,126.833855 982.825747,133.546221 989.5,133.546221 C995.992531,133.546221 1001.7652,126.187449 1011.84399,114.799512 C1015.20061,111.006889 1020.91928,108.579765 1029,107.51814 L1029,107 C1029.91494,107.057581 1030.80453,107.132522 1031.66876,107.224822 C1032.74225,107.128531 1033.85266,107.053591 1035,107 L1035,107.688261 C1041.65326,108.847201 1046.53716,111.217618 1049.65168,114.799512 C1060.11575,126.833855 1067.82575,133.546221 1074.5,133.546221 C1080.99253,133.546221 1086.7652,126.187449 1096.84399,114.799512 C1100.47116,110.701196 1106.8565,108.197374 1116,107.288047 L1116,107 C1116.59795,107.037632 1117.18508,107.082678 1117.76137,107.135139 C1118.49127,107.080663 1119.23748,107.035616 1120,107 L1120,107.383365 C1127.68242,108.395744 1133.23298,110.867793 1136.65168,114.799512 C1147.11575,126.833855 1154.82575,133.546221 1161.5,133.546221 C1167.99253,133.546221 1173.7652,126.187449 1183.84399,114.799512 C1187.47116,110.701196 1193.8565,108.197374 1203,107.288047 L1203,107 C1203.59795,107.037632 1204.18508,107.082678 1204.76137,107.135139 C1205.49127,107.080663 1206.23748,107.035616 1207,107 L1207,107.383365 C1214.68242,108.395744 1220.23298,110.867793 1223.65168,114.799512 C1234.11575,126.833855 1241.82575,133.546221 1248.5,133.546221 C1254.99253,133.546221 1260.7652,126.187449 1270.84399,114.799512 C1274.33744,110.852284 1280.38945,108.384152 1289,107.395117 L1289,107 C1289.75513,107.047524 1290.49299,107.106872 1291.21358,107.178045 C1292.11684,107.103925 1293.04564,107.044577 1294,107 L1294,107.525219 C1301.16592,108.615727 1306.38314,111.040492 1309.65168,114.799512 C1320.11575,126.833855 1327.82575,133.546221 1334.5,133.546221 C1340.99253,133.546221 1346.7652,126.187449 1356.84399,114.799512 C1360.20061,111.006889 1365.91928,108.579765 1374,107.51814 L1374,107 C1374.91494,107.057581 1375.80453,107.132522 1376.66876,107.224822 C1377.74225,107.128531 1378.85266,107.053591 1380,107 L1380,107.688261 C1386.65326,108.847201 1391.53716,111.217618 1394.65168,114.799512 C1405.11575,126.833855 1412.82575,133.546221 1419.5,133.546221 C1425.99253,133.546221 1431.7652,126.187449 1441.84399,114.799512 C1445.60197,110.553397 1452.32064,108.018855 1462,107.195888 L1462,107 C1462.44356,107.027915 1462.88116,107.05991 1463.31281,107.095986 C1463.86604,107.058692 1464.42844,107.026697 1465,107 L1465,107.261188 C1473.2025,108.18643 1479.08639,110.699205 1482.65168,114.799512 C1493.11575,126.833855 1500.82575,133.546221 1507.5,133.546221 C1513.99253,133.546221 1519.7652,126.187449 1529.84399,114.799512 C1533.47116,110.701196 1539.8565,108.197374 1549,107.288047 L1549,107 C1549.59795,107.037632 1550.18508,107.082678 1550.76137,107.135139 C1551.49127,107.080663 1552.23748,107.035616 1553,107 L1553,107.383365 C1560.68242,108.395744 1566.23298,110.867793 1569.65168,114.799512 C1580.11575,126.833855 1587.82575,133.546221 1594.5,133.546221 C1600.99253,133.546221 1606.7652,126.187449 1616.84399,114.799512 C1620.33744,110.852284 1626.38945,108.384152 1635,107.395117 L1635,107 C1635.75513,107.047524 1636.49299,107.106872 1637.21358,107.178045 C1638.11684,107.103925 1639.04564,107.044577 1640,107 L1640,107.525219 C1647.16592,108.615727 1652.38314,111.040492 1655.65168,114.799512 C1666.11575,126.833855 1673.82575,133.546221 1680.5,133.546221 C1686.99253,133.546221 1692.7652,126.187449 1702.84399,114.799512 C1706.20061,111.006889 1711.91928,108.579765 1720,107.51814 L1720,107 C1720.91494,107.057581 1721.80453,107.132522 1722.66876,107.224822 C1723.74225,107.128531 1724.85266,107.053591 1726,107 L1726,107.688261 C1732.65326,108.847201 1737.53716,111.217618 1740.65168,114.799512 C1751.11575,126.833855 1758.82575,133.546221 1765.5,133.546221 C1771.99253,133.546221 1777.7652,126.187449 1787.84399,114.799512 C1791.33744,110.852284 1797.38945,108.384152 1806,107.395117 L1806,107 C1806.75513,107.047524 1807.49299,107.106872 1808.21358,107.178045 C1809.11684,107.103925 1810.04564,107.044577 1811,107 L1811,107.525219 C1818.16592,108.615727 1823.38314,111.040492 1826.65168,114.799512 C1837.11575,126.833855 1844.82575,133.546221 1851.5,133.546221 C1857.99253,133.546221 1863.7652,126.187449 1873.84399,114.799512 C1877.47116,110.701196 1883.8565,108.197374 1893,107.288047 L1893,107 C1893.59795,107.037632 1894.18508,107.082678 1894.76137,107.135139 C1895.49127,107.080663 1896.23748,107.035616 1897,107 L1897,107.383365 C1904.68242,108.395744 1910.23298,110.867793 1913.65168,114.799512 C1924.11575,126.833855 1931.82575,133.546221 1938.5,133.546221 C1944.99253,133.546221 1950.7652,126.187449 1960.84399,114.799512 C1964.33744,110.852284 1970.38945,108.384152 1979,107.395117 L1979,107 C1979.75513,107.047524 1980.49299,107.106872 1981.21358,107.178045 C1982.11684,107.103925 1983.04564,107.044577 1984,107 L1984,107.525219 C1991.16592,108.615727 1996.38314,111.040492 1999.65168,114.799512 C2010.11575,126.833855 2017.82575,133.546221 2024.5,133.546221 C2030.99253,133.546221 2036.7652,126.187449 2046.84399,114.799512 C2050.20061,111.006889 2055.91928,108.579765 2064,107.51814 L2064,107 C2064.91494,107.057581 2065.80453,107.132522 2066.66876,107.224822 C2067.74225,107.128531 2068.85266,107.053591 2070,107 L2070,107.688261 C2076.65326,108.847201 2081.53716,111.217618 2084.65168,114.799512 C2095.11575,126.833855 2102.82575,133.546221 2109.5,133.546221 C2115.99253,133.546221 2121.7652,126.187449 2131.84399,114.799512 C2135.33744,110.852284 2141.38945,108.384152 2150,107.395117 L2150,107 C2150.75513,107.047524 2151.49299,107.106872 2152.21358,107.178045 C2153.11684,107.103925 2154.04564,107.044577 2155,107 L2155,107.525219 C2162.16592,108.615727 2167.38314,111.040492 2170.65168,114.799512 C2181.11575,126.833855 2188.82575,133.546221 2195.5,133.546221 C2201.99253,133.546221 2207.7652,126.187449 2217.84399,114.799512 C2221.47116,110.701196 2227.8565,108.197374 2237,107.288047 L2237,107 C2237.59795,107.037632 2238.18508,107.082678 2238.76137,107.135139 C2239.49127,107.080663 2240.23748,107.035616 2241,107 L2241,107.383365 C2248.68242,108.395744 2254.23298,110.867793 2257.65168,114.799512 C2268.11575,126.833855 2275.82575,133.546221 2282.5,133.546221 C2288.99253,133.546221 2294.7652,126.187449 2304.84399,114.799512 C2308.33744,110.852284 2314.38945,108.384152 2323,107.395117 L2323,107 C2323.75513,107.047524 2324.49299,107.106872 2325.21358,107.178045 C2326.11684,107.103925 2327.04564,107.044577 2328,107 L2328,107.525219 C2335.16592,108.615727 2340.38314,111.040492 2343.65168,114.799512 C2354.11575,126.833855 2361.82575,133.546221 2368.5,133.546221 C2374.99253,133.546221 2380.7652,126.187449 2390.84399,114.799512 C2394.20061,111.006889 2399.91928,108.579765 2408,107.51814 L2408,107 C2408.91494,107.057581 2409.80453,107.132522 2410.66876,107.224822 C2411.74225,107.128531 2412.85266,107.053591 2414,107 L2414,107.688261 C2420.65326,108.847201 2425.53716,111.217618 2428.65168,114.799512 C2439.11575,126.833855 2446.82575,133.546221 2453.5,133.546221 C2459.99253,133.546221 2465.7652,126.187449 2475.84399,114.799512 C2479.60197,110.553397 2486.32064,108.018855 2496,107.195888 L2496,107 C2496.44356,107.027915 2496.88116,107.05991 2497.31281,107.095986 C2497.86604,107.058692 2498.42844,107.026697 2499,107 L2499,107.261188 C2507.2025,108.18643 2513.08639,110.699205 2516.65168,114.799512 C2527.11575,126.833855 2534.82575,133.546221 2541.5,133.546221 C2547.99253,133.546221 2553.7652,126.187449 2563.84399,114.799512 C2567.47116,110.701196 2573.8565,108.197374 2583,107.288047 L2583,107 C2583.59795,107.037632 2584.18508,107.082678 2584.76137,107.135139 C2585.49127,107.080663 2586.23748,107.035616 2587,107 L2587,107.383365 C2594.68242,108.395744 2600.23298,110.867793 2603.65168,114.799512 C2614.11575,126.833855 2621.82575,133.546221 2628.5,133.546221 C2634.99253,133.546221 2640.7652,126.187449 2650.84399,114.799512 C2654.33744,110.852284 2660.38945,108.384152 2669,107.395117 L2669,107 C2669.75513,107.047524 2670.49299,107.106872 2671.21358,107.178045 C2672.11684,107.103925 2673.04564,107.044577 2674,107 L2674,107.525219 C2681.16592,108.615727 2686.38314,111.040492 2689.65168,114.799512 C2700.11575,126.833855 2707.82575,133.546221 2714.5,133.546221 C2720.99253,133.546221 2726.7652,126.187449 2736.84399,114.799512 C2740.20061,111.006889 2745.91928,108.579765 2754,107.51814 Z" id="Combined-Shape"></path>
        </g>
    </g>
</svg>