<?xml version="1.0" encoding="UTF-8"?>
<svg width="3108px" height="101px" viewBox="0 0 3108 101" version="1.1" xmlns="http://www.w3.org/2000/svg" xmlns:xlink="http://www.w3.org/1999/xlink">
    <!-- Generator: Sketch 50.2 (55047) - http://www.bohemiancoding.com/sketch -->
    <title>light-water</title>
    <desc>Created with Sketch.</desc>
    <defs>
        <linearGradient x1="50%" y1="0%" x2="50%" y2="100%" id="linearGradient-1">
            <stop stop-color="#00D2FF" offset="0%"></stop>
            <stop stop-color="#005B7D" offset="100%"></stop>
        </linearGradient>
    </defs>
    <g id="Page-1" stroke="none" stroke-width="1" fill="none" fill-rule="evenodd">
        <g id="Artboard-2" transform="translate(-62.000000, -107.000000)" fill="url(#linearGradient-1)">
            <g id="light-water" transform="translate(62.000000, 107.000000)">
                <path d="M2673,0.518140196 L2673,0 C2673.91494,0.0575811986 2674.80453,0.132521739 2675.66876,0.22482162 C2676.74225,0.128531477 2677.85266,0.053590822 2679,0 L2679,0.688261433 C2685.65326,1.84720078 2690.53716,4.21761762 2693.65168,7.79951195 C2704.11575,19.8338553 2711.82575,26.5462209 2718.5,26.5462209 C2724.99253,26.5462209 2730.7652,19.1874493 2740.84399,7.79951195 C2744.33744,3.85228353 2750.38945,1.38415192 2759,0.395117121 L2759,0 C2759.75513,0.0475236965 2760.49299,0.106872151 2761.21358,0.178045365 C2762.11684,0.103925208 2763.04564,0.0445767535 2764,0 L2764,0.525218813 C2771.16592,1.61572712 2776.38314,4.0404915 2779.65168,7.79951195 C2790.11575,19.8338553 2797.82575,26.5462209 2804.5,26.5462209 C2810.99253,26.5462209 2816.7652,19.1874493 2826.84399,7.79951195 C2830.47116,3.7011961 2836.8565,1.19737441 2846,0.288046884 L2846,0 C2846.59795,0.0376318116 2847.18508,0.082678127 2847.76137,0.135138946 C2848.49127,0.0806626319 2849.23748,0.0356163164 2850,0 L2850,0.38336545 C2857.68242,1.39574384 2863.23298,3.86779267 2866.65168,7.79951195 C2877.11575,19.8338553 2884.82575,26.5462209 2891.5,26.5462209 C2897.99253,26.5462209 2903.7652,19.1874493 2913.84399,7.79951195 C2917.33744,3.85228353 2923.38945,1.38415192 2932,0.395117121 L2932,0 C2932.75513,0.0475236965 2933.49299,0.106872151 2934.21358,0.178045365 C2935.11684,0.103925208 2936.04564,0.0445767535 2937,0 L2937,0.525218813 C2944.16592,1.61572712 2949.38314,4.0404915 2952.65168,7.79951195 C2963.11575,19.8338553 2970.82575,26.5462209 2977.5,26.5462209 C2983.99253,26.5462209 2989.7652,19.1874493 2999.84399,7.79951195 C3003.20061,4.00688874 3008.91928,1.57976482 3017,0.518140196 L3017,0 C3017.91494,0.0575811986 3018.80453,0.132521739 3019.66876,0.22482162 C3020.74225,0.128531477 3021.85266,0.053590822 3023,0 L3023,0.688261433 C3029.65326,1.84720078 3034.53716,4.21761762 3037.65168,7.79951195 C3048.11575,19.8338553 3055.82575,26.5462209 3062.5,26.5462209 C3068.99253,26.5462209 3074.7652,19.1874493 3084.84399,7.79951195 C3088.97867,3.12776947 3096.69734,0.527932154 3108,0 L3108,101 L3023,101 L2937,101 L2846,101 L2759,101 L2679,101 L2593,101 L2502,101 L2418,101 L2333,101 L2247,101 L2156,101 L2074,101 L1989,101 L1903,101 L1812,101 L1725,101 L1645,101 L1559,101 L1468,101 L1384,101 L1299,101 L1213,101 L1122,101 L1039,101 L954,101 L868,101 L777,101 L690,101 L610,101 L524,101 L433,101 L349,101 L264,101 L178,101 L87,101 L0,101 L0,0 C9.78186435,0.615615061 16.6657565,3.21545238 20.6516766,7.79951195 C31.1157488,19.8338553 38.8257467,26.5462209 45.5,26.5462209 C51.9925308,26.5462209 57.7652,19.1874493 67.8439855,7.79951195 C71.4711609,3.7011961 77.8564991,1.19737441 87,0.288046884 L87,0 C87.5979537,0.0376318116 88.1850784,0.082678127 88.7613741,0.135138946 C89.4912707,0.0806626319 90.2374793,0.0356163164 91,0 L91,0.38336545 C98.682419,1.39574384 104.232978,3.86779267 107.651677,7.79951195 C118.115749,19.8338553 125.825747,26.5462209 132.5,26.5462209 C138.992531,26.5462209 144.7652,19.1874493 154.843985,7.79951195 C158.337442,3.85228353 164.389447,1.38415192 173,0.395117121 L173,0 C173.755132,0.0475236965 174.492993,0.106872151 175.213584,0.178045365 C176.116837,0.103925208 177.045643,0.0445767535 178,0 L178,0.525218813 C185.165917,1.61572712 190.383143,4.0404915 193.651677,7.79951195 C204.115749,19.8338553 211.825747,26.5462209 218.5,26.5462209 C224.992531,26.5462209 230.7652,19.1874493 240.843985,7.79951195 C244.200611,4.00688874 249.919282,1.57976482 258,0.518140196 L258,0 C258.914941,0.0575811986 259.804529,0.132521739 260.668763,0.22482162 C261.742246,0.128531477 262.852658,0.053590822 264,0 L264,0.688261433 C270.653265,1.84720078 275.537157,4.21761762 278.651677,7.79951195 C289.115749,19.8338553 296.825747,26.5462209 303.5,26.5462209 C309.992531,26.5462209 315.7652,19.1874493 325.843985,7.79951195 C329.601969,3.55339671 336.320641,1.01885529 346,0.195887698 L346,0 C346.443562,0.0279152455 346.881164,0.0599104402 347.312808,0.095985584 C347.86604,0.0586921016 348.428438,0.0266969069 349,0 L349,0.261187679 C357.202496,1.18643011 363.086388,3.69920486 366.651677,7.79951195 C377.115749,19.8338553 384.825747,26.5462209 391.5,26.5462209 C397.992531,26.5462209 403.7652,19.1874493 413.843985,7.79951195 C417.471161,3.7011961 423.856499,1.19737441 433,0.288046884 L433,0 C433.597954,0.0376318116 434.185078,0.082678127 434.761374,0.135138946 C435.491271,0.0806626319 436.237479,0.0356163164 437,0 L437,0.38336545 C444.682419,1.39574384 450.232978,3.86779267 453.651677,7.79951195 C464.115749,19.8338553 471.825747,26.5462209 478.5,26.5462209 C484.992531,26.5462209 490.7652,19.1874493 500.843985,7.79951195 C504.337442,3.85228353 510.389447,1.38415192 519,0.395117121 L519,0 C519.755132,0.0475236965 520.492993,0.106872151 521.213584,0.178045365 C522.116837,0.103925208 523.045643,0.0445767535 524,0 L524,0.525218813 C531.165917,1.61572712 536.383143,4.0404915 539.651677,7.79951195 C550.115749,19.8338553 557.825747,26.5462209 564.5,26.5462209 C570.992531,26.5462209 576.7652,19.1874493 586.843985,7.79951195 C590.200611,4.00688874 595.919282,1.57976482 604,0.518140196 L604,0 C604.914941,0.0575811986 605.804529,0.132521739 606.668763,0.22482162 C607.742246,0.128531477 608.852658,0.053590822 610,0 L610,0.688261433 C616.653265,1.84720078 621.537157,4.21761762 624.651677,7.79951195 C635.115749,19.8338553 642.825747,26.5462209 649.5,26.5462209 C655.992531,26.5462209 661.7652,19.1874493 671.843985,7.79951195 C675.337442,3.85228353 681.389447,1.38415192 690,0.395117121 L690,0 C690.755132,0.0475236965 691.492993,0.106872151 692.213584,0.178045365 C693.116837,0.103925208 694.045643,0.0445767535 695,0 L695,0.525218813 C702.165917,1.61572712 707.383143,4.0404915 710.651677,7.79951195 C721.115749,19.8338553 728.825747,26.5462209 735.5,26.5462209 C741.992531,26.5462209 747.7652,19.1874493 757.843985,7.79951195 C761.471161,3.7011961 767.856499,1.19737441 777,0.288046884 L777,0 C777.597954,0.0376318116 778.185078,0.082678127 778.761374,0.135138946 C779.491271,0.0806626319 780.237479,0.0356163164 781,0 L781,0.38336545 C788.682419,1.39574384 794.232978,3.86779267 797.651677,7.79951195 C808.115749,19.8338553 815.825747,26.5462209 822.5,26.5462209 C828.992531,26.5462209 834.7652,19.1874493 844.843985,7.79951195 C848.337442,3.85228353 854.389447,1.38415192 863,0.395117121 L863,0 C863.755132,0.0475236965 864.492993,0.106872151 865.213584,0.178045365 C866.116837,0.103925208 867.045643,0.0445767535 868,0 L868,0.525218813 C875.165917,1.61572712 880.383143,4.0404915 883.651677,7.79951195 C894.115749,19.8338553 901.825747,26.5462209 908.5,26.5462209 C914.992531,26.5462209 920.7652,19.1874493 930.843985,7.79951195 C934.200611,4.00688874 939.919282,1.57976482 948,0.518140196 L948,0 C948.914941,0.0575811986 949.804529,0.132521739 950.668763,0.22482162 C951.742246,0.128531477 952.852658,0.053590822 954,0 L954,0.688261433 C960.653265,1.84720078 965.537157,4.21761762 968.651677,7.79951195 C979.115749,19.8338553 986.825747,26.5462209 993.5,26.5462209 C999.992531,26.5462209 1005.7652,19.1874493 1015.84399,7.79951195 C1019.47116,3.7011961 1025.8565,1.19737441 1035,0.288046884 L1035,0 C1035.59795,0.0376318116 1036.18508,0.082678127 1036.76137,0.135138946 C1037.49127,0.0806626319 1038.23748,0.0356163164 1039,0 L1039,0.38336545 C1046.68242,1.39574384 1052.23298,3.86779267 1055.65168,7.79951195 C1066.11575,19.8338553 1073.82575,26.5462209 1080.5,26.5462209 C1086.99253,26.5462209 1092.7652,19.1874493 1102.84399,7.79951195 C1106.47116,3.7011961 1112.8565,1.19737441 1122,0.288046884 L1122,0 C1122.59795,0.0376318116 1123.18508,0.082678127 1123.76137,0.135138946 C1124.49127,0.0806626319 1125.23748,0.0356163164 1126,0 L1126,0.38336545 C1133.68242,1.39574384 1139.23298,3.86779267 1142.65168,7.79951195 C1153.11575,19.8338553 1160.82575,26.5462209 1167.5,26.5462209 C1173.99253,26.5462209 1179.7652,19.1874493 1189.84399,7.79951195 C1193.33744,3.85228353 1199.38945,1.38415192 1208,0.395117121 L1208,0 C1208.75513,0.0475236965 1209.49299,0.106872151 1210.21358,0.178045365 C1211.11684,0.103925208 1212.04564,0.0445767535 1213,0 L1213,0.525218813 C1220.16592,1.61572712 1225.38314,4.0404915 1228.65168,7.79951195 C1239.11575,19.8338553 1246.82575,26.5462209 1253.5,26.5462209 C1259.99253,26.5462209 1265.7652,19.1874493 1275.84399,7.79951195 C1279.20061,4.00688874 1284.91928,1.57976482 1293,0.518140196 L1293,0 C1293.91494,0.0575811986 1294.80453,0.132521739 1295.66876,0.22482162 C1296.74225,0.128531477 1297.85266,0.053590822 1299,0 L1299,0.688261433 C1305.65326,1.84720078 1310.53716,4.21761762 1313.65168,7.79951195 C1324.11575,19.8338553 1331.82575,26.5462209 1338.5,26.5462209 C1344.99253,26.5462209 1350.7652,19.1874493 1360.84399,7.79951195 C1364.60197,3.55339671 1371.32064,1.01885529 1381,0.195887698 L1381,0 C1381.44356,0.0279152455 1381.88116,0.0599104402 1382.31281,0.095985584 C1382.86604,0.0586921016 1383.42844,0.0266969069 1384,0 L1384,0.261187679 C1392.2025,1.18643011 1398.08639,3.69920486 1401.65168,7.79951195 C1412.11575,19.8338553 1419.82575,26.5462209 1426.5,26.5462209 C1432.99253,26.5462209 1438.7652,19.1874493 1448.84399,7.79951195 C1452.47116,3.7011961 1458.8565,1.19737441 1468,0.288046884 L1468,0 C1468.59795,0.0376318116 1469.18508,0.082678127 1469.76137,0.135138946 C1470.49127,0.0806626319 1471.23748,0.0356163164 1472,0 L1472,0.38336545 C1479.68242,1.39574384 1485.23298,3.86779267 1488.65168,7.79951195 C1499.11575,19.8338553 1506.82575,26.5462209 1513.5,26.5462209 C1519.99253,26.5462209 1525.7652,19.1874493 1535.84399,7.79951195 C1539.33744,3.85228353 1545.38945,1.38415192 1554,0.395117121 L1554,0 C1554.75513,0.0475236965 1555.49299,0.106872151 1556.21358,0.178045365 C1557.11684,0.103925208 1558.04564,0.0445767535 1559,0 L1559,0.525218813 C1566.16592,1.61572712 1571.38314,4.0404915 1574.65168,7.79951195 C1585.11575,19.8338553 1592.82575,26.5462209 1599.5,26.5462209 C1605.99253,26.5462209 1611.7652,19.1874493 1621.84399,7.79951195 C1625.20061,4.00688874 1630.91928,1.57976482 1639,0.518140196 L1639,0 C1639.91494,0.0575811986 1640.80453,0.132521739 1641.66876,0.22482162 C1642.74225,0.128531477 1643.85266,0.053590822 1645,0 L1645,0.688261433 C1651.65326,1.84720078 1656.53716,4.21761762 1659.65168,7.79951195 C1670.11575,19.8338553 1677.82575,26.5462209 1684.5,26.5462209 C1690.99253,26.5462209 1696.7652,19.1874493 1706.84399,7.79951195 C1710.33744,3.85228353 1716.38945,1.38415192 1725,0.395117121 L1725,0 C1725.75513,0.0475236965 1726.49299,0.106872151 1727.21358,0.178045365 C1728.11684,0.103925208 1729.04564,0.0445767535 1730,0 L1730,0.525218813 C1737.16592,1.61572712 1742.38314,4.0404915 1745.65168,7.79951195 C1756.11575,19.8338553 1763.82575,26.5462209 1770.5,26.5462209 C1776.99253,26.5462209 1782.7652,19.1874493 1792.84399,7.79951195 C1796.47116,3.7011961 1802.8565,1.19737441 1812,0.288046884 L1812,0 C1812.59795,0.0376318116 1813.18508,0.082678127 1813.76137,0.135138946 C1814.49127,0.0806626319 1815.23748,0.0356163164 1816,0 L1816,0.38336545 C1823.68242,1.39574384 1829.23298,3.86779267 1832.65168,7.79951195 C1843.11575,19.8338553 1850.82575,26.5462209 1857.5,26.5462209 C1863.99253,26.5462209 1869.7652,19.1874493 1879.84399,7.79951195 C1883.33744,3.85228353 1889.38945,1.38415192 1898,0.395117121 L1898,0 C1898.75513,0.0475236965 1899.49299,0.106872151 1900.21358,0.178045365 C1901.11684,0.103925208 1902.04564,0.0445767535 1903,0 L1903,0.525218813 C1910.16592,1.61572712 1915.38314,4.0404915 1918.65168,7.79951195 C1929.11575,19.8338553 1936.82575,26.5462209 1943.5,26.5462209 C1949.99253,26.5462209 1955.7652,19.1874493 1965.84399,7.79951195 C1969.20061,4.00688874 1974.91928,1.57976482 1983,0.518140196 L1983,0 C1983.91494,0.0575811986 1984.80453,0.132521739 1985.66876,0.22482162 C1986.74225,0.128531477 1987.85266,0.053590822 1989,0 L1989,0.688261433 C1995.65326,1.84720078 2000.53716,4.21761762 2003.65168,7.79951195 C2014.11575,19.8338553 2021.82575,26.5462209 2028.5,26.5462209 C2034.99253,26.5462209 2040.7652,19.1874493 2050.84399,7.79951195 C2054.33744,3.85228353 2060.38945,1.38415192 2069,0.395117121 L2069,0 C2069.75513,0.0475236965 2070.49299,0.106872151 2071.21358,0.178045365 C2072.11684,0.103925208 2073.04564,0.0445767535 2074,0 L2074,0.525218813 C2081.16592,1.61572712 2086.38314,4.0404915 2089.65168,7.79951195 C2100.11575,19.8338553 2107.82575,26.5462209 2114.5,26.5462209 C2120.99253,26.5462209 2126.7652,19.1874493 2136.84399,7.79951195 C2140.47116,3.7011961 2146.8565,1.19737441 2156,0.288046884 L2156,0 C2156.59795,0.0376318116 2157.18508,0.082678127 2157.76137,0.135138946 C2158.49127,0.0806626319 2159.23748,0.0356163164 2160,0 L2160,0.38336545 C2167.68242,1.39574384 2173.23298,3.86779267 2176.65168,7.79951195 C2187.11575,19.8338553 2194.82575,26.5462209 2201.5,26.5462209 C2207.99253,26.5462209 2213.7652,19.1874493 2223.84399,7.79951195 C2227.33744,3.85228353 2233.38945,1.38415192 2242,0.395117121 L2242,0 C2242.75513,0.0475236965 2243.49299,0.106872151 2244.21358,0.178045365 C2245.11684,0.103925208 2246.04564,0.0445767535 2247,0 L2247,0.525218813 C2254.16592,1.61572712 2259.38314,4.0404915 2262.65168,7.79951195 C2273.11575,19.8338553 2280.82575,26.5462209 2287.5,26.5462209 C2293.99253,26.5462209 2299.7652,19.1874493 2309.84399,7.79951195 C2313.20061,4.00688874 2318.91928,1.57976482 2327,0.518140196 L2327,0 C2327.91494,0.0575811986 2328.80453,0.132521739 2329.66876,0.22482162 C2330.74225,0.128531477 2331.85266,0.053590822 2333,0 L2333,0.688261433 C2339.65326,1.84720078 2344.53716,4.21761762 2347.65168,7.79951195 C2358.11575,19.8338553 2365.82575,26.5462209 2372.5,26.5462209 C2378.99253,26.5462209 2384.7652,19.1874493 2394.84399,7.79951195 C2398.60197,3.55339671 2405.32064,1.01885529 2415,0.195887698 L2415,0 C2415.44356,0.0279152455 2415.88116,0.0599104402 2416.31281,0.095985584 C2416.86604,0.0586921016 2417.42844,0.0266969069 2418,0 L2418,0.261187679 C2426.2025,1.18643011 2432.08639,3.69920486 2435.65168,7.79951195 C2446.11575,19.8338553 2453.82575,26.5462209 2460.5,26.5462209 C2466.99253,26.5462209 2472.7652,19.1874493 2482.84399,7.79951195 C2486.47116,3.7011961 2492.8565,1.19737441 2502,0.288046884 L2502,0 C2502.59795,0.0376318116 2503.18508,0.082678127 2503.76137,0.135138946 C2504.49127,0.0806626319 2505.23748,0.0356163164 2506,0 L2506,0.38336545 C2513.68242,1.39574384 2519.23298,3.86779267 2522.65168,7.79951195 C2533.11575,19.8338553 2540.82575,26.5462209 2547.5,26.5462209 C2553.99253,26.5462209 2559.7652,19.1874493 2569.84399,7.79951195 C2573.33744,3.85228353 2579.38945,1.38415192 2588,0.395117121 L2588,0 C2588.75513,0.0475236965 2589.49299,0.106872151 2590.21358,0.178045365 C2591.11684,0.103925208 2592.04564,0.0445767535 2593,0 L2593,0.525218813 C2600.16592,1.61572712 2605.38314,4.0404915 2608.65168,7.79951195 C2619.11575,19.8338553 2626.82575,26.5462209 2633.5,26.5462209 C2639.99253,26.5462209 2645.7652,19.1874493 2655.84399,7.79951195 C2659.20061,4.00688874 2664.91928,1.57976482 2673,0.518140196 Z" id="Combined-Shape"></path>
            </g>
        </g>
    </g>
</svg>