<?xml version="1.0" encoding="UTF-8"?>
<svg width="252px" height="408px" viewBox="0 0 252 408" version="1.1" xmlns="http://www.w3.org/2000/svg" xmlns:xlink="http://www.w3.org/1999/xlink">
    <!-- Generator: Sketch 50.2 (55047) - http://www.bohemiancoding.com/sketch -->
    <title>shark</title>
    <desc>Created with Sketch.</desc>
    <defs></defs>
    <g id="Page-1" stroke="none" stroke-width="1" fill="none" fill-rule="evenodd">
        <g id="Artboard-3" transform="translate(-139.000000, -70.000000)">
            <g id="shark" transform="translate(139.000000, 70.000000)">
                <path d="M207.001888,238.238201 L174,250.906439 L174,294 L173.803082,294 C174.587446,297.548712 175,301.228348 175,305 C175,322.421001 166.198367,337.878872 152.609996,347.539567 L190,408 L49,408 L86.3900044,347.539567 C72.8016332,337.878872 64,322.421001 64,305 C64,301.228348 64.4125536,297.548712 65.196918,294 L65,294 L65,266.923071 L29.6545206,269.394668 L65,222.226641 L65,178.486972 L0.0204235013,154.088482 L65,132.245534 L65,92 L65.7191943,92 L69.7829443,0.500065823 L119.722126,85.1347192 L168.968404,1.67436889 L172.98,92 L174,92 L174,132.466566 L251.994145,220.967291 L216.419687,234.623046 L212,207 L207.001888,238.238201 Z" id="Combined-Shape" fill="#96A9C2"></path>
                <ellipse id="Oval-4" fill="#000000" cx="155.5" cy="98" rx="8.5" ry="9"></ellipse>
                <polygon id="Triangle-7" fill="#FF5E5E" transform="translate(87.036490, 13.110523) rotate(57.000000) translate(-87.036490, -13.110523) " points="87.0364901 4.61052308 97.0364901 21.6105231 77.0364901 21.6105231"></polygon>
                <polygon id="Triangle-7" fill="#FF5E5E" transform="translate(97.575090, 31.016137) rotate(57.000000) translate(-97.575090, -31.016137) " points="97.5750902 22.5161375 107.57509 39.5161375 87.5750902 39.5161375"></polygon>
                <polygon id="Triangle-7" fill="#FF5E5E" transform="translate(108.575090, 50.016137) rotate(57.000000) translate(-108.575090, -50.016137) " points="108.57509 41.5161375 118.57509 58.5161375 98.5750902 58.5161375"></polygon>
                <polygon id="Triangle-7" fill="#FF5E5E" transform="translate(142.575090, 31.016137) scale(-1, 1) rotate(57.000000) translate(-142.575090, -31.016137) " points="142.57509 22.5161375 152.57509 39.5161375 132.57509 39.5161375"></polygon>
                <polygon id="Triangle-7" fill="#FF5E5E" transform="translate(130.575090, 50.016137) scale(-1, 1) rotate(57.000000) translate(-130.575090, -50.016137) " points="130.57509 41.5161375 140.57509 58.5161375 120.57509 58.5161375"></polygon>
                <polygon id="Triangle-7" fill="#FF5E5E" transform="translate(153.575090, 13.016137) scale(-1, 1) rotate(57.000000) translate(-153.575090, -13.016137) " points="153.57509 4.51613748 163.57509 21.5161375 143.57509 21.5161375"></polygon>
            </g>
        </g>
    </g>
</svg>