<?xml version="1.0" encoding="UTF-8"?>
<svg width="3557px" height="2116px" viewBox="0 0 3557 2116" version="1.1" xmlns="http://www.w3.org/2000/svg" xmlns:xlink="http://www.w3.org/1999/xlink">
    <!-- Generator: Sketch 50.2 (55047) - http://www.bohemiancoding.com/sketch -->
    <title>Combined Shape</title>
    <desc>Created with Sketch.</desc>
    <defs></defs>
    <g id="Page-1" stroke="none" stroke-width="1" fill="none" fill-rule="evenodd">
        <g id="iPad-Pro" transform="translate(-22.000000, -83.000000)" fill="#FFFFFF">
            <path d="M544,255 C532.954305,255 524,246.045695 524,235 C524,223.954305 532.954305,215 544,215 C555.045695,215 564,223.954305 564,235 C564,246.045695 555.045695,255 544,255 Z M1106,295 C1094.95431,295 1086,286.045695 1086,275 C1086,263.954305 1094.95431,255 1106,255 C1117.04569,255 1126,263.954305 1126,275 C1126,286.045695 1117.04569,295 1106,295 Z M1536,472 C1524.95431,472 1516,463.045695 1516,452 C1516,440.954305 1524.95431,432 1536,432 C1547.04569,432 1556,440.954305 1556,452 C1556,463.045695 1547.04569,472 1536,472 Z M1618,834 C1606.95431,834 1598,825.045695 1598,814 C1598,802.954305 1606.95431,794 1618,794 C1629.04569,794 1638,802.954305 1638,814 C1638,825.045695 1629.04569,834 1618,834 Z M1998,904 C1986.95431,904 1978,895.045695 1978,884 C1978,872.954305 1986.95431,864 1998,864 C2009.04569,864 2018,872.954305 2018,884 C2018,895.045695 2009.04569,904 1998,904 Z M2262,636 C2250.95431,636 2242,627.045695 2242,616 C2242,604.954305 2250.95431,596 2262,596 C2273.04569,596 2282,604.954305 2282,616 C2282,627.045695 2273.04569,636 2262,636 Z M3126,973 C3114.95431,973 3106,964.045695 3106,953 C3106,941.954305 3114.95431,933 3126,933 C3137.04569,933 3146,941.954305 3146,953 C3146,964.045695 3137.04569,973 3126,973 Z M3166,1186 C3154.95431,1186 3146,1177.04569 3146,1166 C3146,1154.95431 3154.95431,1146 3166,1146 C3177.04569,1146 3186,1154.95431 3186,1166 C3186,1177.04569 3177.04569,1186 3166,1186 Z M2140,177 C2134.47715,177 2130,172.522847 2130,167 C2130,161.477153 2134.47715,157 2140,157 C2145.52285,157 2150,161.477153 2150,167 C2150,172.522847 2145.52285,177 2140,177 Z M2778,373 C2772.47715,373 2768,368.522847 2768,363 C2768,357.477153 2772.47715,353 2778,353 C2783.52285,353 2788,357.477153 2788,363 C2788,368.522847 2783.52285,373 2778,373 Z M3260,103 C3254.47715,103 3250,98.5228475 3250,93 C3250,87.4771525 3254.47715,83 3260,83 C3265.52285,83 3270,87.4771525 3270,93 C3270,98.5228475 3265.52285,103 3260,103 Z M2626,993 C2620.47715,993 2616,988.522847 2616,983 C2616,977.477153 2620.47715,973 2626,973 C2631.52285,973 2636,977.477153 2636,983 C2636,988.522847 2631.52285,993 2626,993 Z M2130,1236 C2124.47715,1236 2120,1231.52285 2120,1226 C2120,1220.47715 2124.47715,1216 2130,1216 C2135.52285,1216 2140,1220.47715 2140,1226 C2140,1231.52285 2135.52285,1236 2130,1236 Z M2616,1600 C2610.47715,1600 2606,1595.52285 2606,1590 C2606,1584.47715 2610.47715,1580 2616,1580 C2621.52285,1580 2626,1584.47715 2626,1590 C2626,1595.52285 2621.52285,1600 2616,1600 Z M2928,2002 C2922.47715,2002 2918,1997.52285 2918,1992 C2918,1986.47715 2922.47715,1982 2928,1982 C2933.52285,1982 2938,1986.47715 2938,1992 C2938,1997.52285 2933.52285,2002 2928,2002 Z M3497,2069 C3491.47715,2069 3487,2064.52285 3487,2059 C3487,2053.47715 3491.47715,2049 3497,2049 C3502.52285,2049 3507,2053.47715 3507,2059 C3507,2064.52285 3502.52285,2069 3497,2069 Z M1608,1542 C1602.47715,1542 1598,1537.52285 1598,1532 C1598,1526.47715 1602.47715,1522 1608,1522 C1613.52285,1522 1618,1526.47715 1618,1532 C1618,1537.52285 1613.52285,1542 1608,1542 Z M2018,1726 C2012.47715,1726 2008,1721.52285 2008,1716 C2008,1710.47715 2012.47715,1706 2018,1706 C2023.52285,1706 2028,1710.47715 2028,1716 C2028,1721.52285 2023.52285,1726 2018,1726 Z M2205,2199 C2199.47715,2199 2195,2194.52285 2195,2189 C2195,2183.47715 2199.47715,2179 2205,2179 C2210.52285,2179 2215,2183.47715 2215,2189 C2215,2194.52285 2210.52285,2199 2205,2199 Z M1268,1119 C1262.47715,1119 1258,1114.52285 1258,1109 C1258,1103.47715 1262.47715,1099 1268,1099 C1273.52285,1099 1278,1103.47715 1278,1109 C1278,1114.52285 1273.52285,1119 1268,1119 Z M796,700 C790.477153,700 786,695.522847 786,690 C786,684.477153 790.477153,680 796,680 C801.522847,680 806,684.477153 806,690 C806,695.522847 801.522847,700 796,700 Z M149,1310 C143.477153,1310 139,1305.52285 139,1300 C139,1294.47715 143.477153,1290 149,1290 C154.522847,1290 159,1294.47715 159,1300 C159,1305.52285 154.522847,1310 149,1310 Z M32,504 C26.4771525,504 22,499.522847 22,494 C22,488.477153 26.4771525,484 32,484 C37.5228475,484 42,488.477153 42,494 C42,499.522847 37.5228475,504 32,504 Z M64,1866 C58.4771525,1866 54,1861.52285 54,1856 C54,1850.47715 58.4771525,1846 64,1846 C69.5228475,1846 74,1850.47715 74,1856 C74,1861.52285 69.5228475,1866 64,1866 Z M776,1480 C770.477153,1480 766,1475.52285 766,1470 C766,1464.47715 770.477153,1460 776,1460 C781.522847,1460 786,1464.47715 786,1470 C786,1475.52285 781.522847,1480 776,1480 Z M599,1928 C593.477153,1928 589,1923.52285 589,1918 C589,1912.47715 593.477153,1908 599,1908 C604.522847,1908 609,1912.47715 609,1918 C609,1923.52285 604.522847,1928 599,1928 Z M1176,2049 C1170.47715,2049 1166,2044.52285 1166,2039 C1166,2033.47715 1170.47715,2029 1176,2029 C1181.52285,2029 1186,2033.47715 1186,2039 C1186,2044.52285 1181.52285,2049 1176,2049 Z M3569,680 C3563.47715,680 3559,675.522847 3559,670 C3559,664.477153 3563.47715,660 3569,660 C3574.52285,660 3579,664.477153 3579,670 C3579,675.522847 3574.52285,680 3569,680 Z M3240,1640 C3228.95431,1640 3220,1631.04569 3220,1620 C3220,1608.95431 3228.95431,1600 3240,1600 C3251.04569,1600 3260,1608.95431 3260,1620 C3260,1631.04569 3251.04569,1640 3240,1640 Z M2948,1226 C2936.95431,1226 2928,1217.04569 2928,1206 C2928,1194.95431 2936.95431,1186 2948,1186 C2959.04569,1186 2968,1194.95431 2968,1206 C2968,1217.04569 2959.04569,1226 2948,1226 Z M3408,1186 C3396.95431,1186 3388,1177.04569 3388,1166 C3388,1154.95431 3396.95431,1146 3408,1146 C3419.04569,1146 3428,1154.95431 3428,1166 C3428,1177.04569 3419.04569,1186 3408,1186 Z" id="Combined-Shape"></path>
        </g>
    </g>
</svg>