<?xml version="1.0" encoding="UTF-8"?>
<svg width="4121px" height="2150px" viewBox="0 0 4121 2150" version="1.1" xmlns="http://www.w3.org/2000/svg" xmlns:xlink="http://www.w3.org/1999/xlink">
    <!-- Generator: Sketch 50.2 (55047) - http://www.bohemiancoding.com/sketch -->
    <title>Combined Shape</title>
    <desc>Created with Sketch.</desc>
    <defs></defs>
    <g id="Page-1" stroke="none" stroke-width="1" fill="none" fill-rule="evenodd">
        <g id="iPad-Pro" transform="translate(-14.000000, -56.000000)" fill="#FFFFFF">
            <path d="M548.356511,196.5 L533.832712,206.697561 L536.606511,185.09878 L524.856511,169.802439 L541.094612,166.65122 L548.356511,147 L555.61841,166.65122 L571.856511,169.802439 L560.106511,185.09878 L562.88031,206.697561 L548.356511,196.5 Z M1183.5,226.5 L1168.9762,236.697561 L1171.75,215.09878 L1160,199.802439 L1176.2381,196.65122 L1183.5,177 L1190.7619,196.65122 L1207,199.802439 L1195.25,215.09878 L1198.0238,236.697561 L1183.5,226.5 Z M1727.5,404.5 L1712.9762,414.697561 L1715.75,393.09878 L1704,377.802439 L1720.2381,374.65122 L1727.5,355 L1734.7619,374.65122 L1751,377.802439 L1739.25,393.09878 L1742.0238,414.697561 L1727.5,404.5 Z M2457.5,112.825543 L2446.68441,120 L2448.75,104.804257 L2440,94.0425725 L2452.0922,91.8255435 L2457.5,78 L2462.9078,91.8255435 L2475,94.0425725 L2466.25,104.804257 L2468.31559,120 L2457.5,112.825543 Z M3223.5,327.825543 L3212.68441,335 L3214.75,319.804257 L3206,309.042572 L3218.0922,306.825543 L3223.5,293 L3228.9078,306.825543 L3241,309.042572 L3232.25,319.804257 L3234.31559,335 L3223.5,327.825543 Z M2545.5,597.825543 L2534.68441,605 L2536.75,589.804257 L2528,579.042572 L2540.0922,576.825543 L2545.5,563 L2550.9078,576.825543 L2563,579.042572 L2554.25,589.804257 L2556.31559,605 L2545.5,597.825543 Z M2440.5,1336.25 L2429.62597,1339.8037 L2431.70273,1332.27685 L2422.90545,1326.9463 L2435.06299,1325.84815 L2440.5,1319 L2445.93701,1325.84815 L2458.09455,1326.9463 L2449.29727,1332.27685 L2451.37403,1339.8037 L2440.5,1336.25 Z M1800.59455,1575.25 L1789.72052,1578.8037 L1791.79727,1571.27685 L1783,1565.9463 L1795.15753,1564.84815 L1800.59455,1558 L1806.03156,1564.84815 L1818.18909,1565.9463 L1809.39182,1571.27685 L1811.46857,1578.8037 L1800.59455,1575.25 Z M2422.59455,1782.25 L2411.72052,1785.8037 L2413.79727,1778.27685 L2405,1772.9463 L2417.15753,1771.84815 L2422.59455,1765 L2428.03156,1771.84815 L2440.18909,1772.9463 L2431.39182,1778.27685 L2433.46857,1785.8037 L2422.59455,1782.25 Z M3045.59455,1630.25 L3034.72052,1633.8037 L3036.79727,1626.27685 L3028,1620.9463 L3040.15753,1619.84815 L3045.59455,1613 L3051.03156,1619.84815 L3063.18909,1620.9463 L3054.39182,1626.27685 L3056.46857,1633.8037 L3045.59455,1630.25 Z M3383.59455,2008.25 L3372.72052,2011.8037 L3374.79727,2004.27685 L3366,1998.9463 L3378.15753,1997.84815 L3383.59455,1991 L3389.03156,1997.84815 L3401.18909,1998.9463 L3392.39182,2004.27685 L3394.46857,2011.8037 L3383.59455,2008.25 Z M4051.59455,2105.25 L4040.72052,2108.8037 L4042.79727,2101.27685 L4034,2095.9463 L4046.15753,2094.84815 L4051.59455,2088 L4057.03156,2094.84815 L4069.18909,2095.9463 L4060.39182,2101.27685 L4062.46857,2108.8037 L4051.59455,2105.25 Z M2527.59455,2202.25 L2516.72052,2205.8037 L2518.79727,2198.27685 L2510,2192.9463 L2522.15753,2191.84815 L2527.59455,2185 L2533.03156,2191.84815 L2545.18909,2192.9463 L2536.39182,2198.27685 L2538.46857,2205.8037 L2527.59455,2202.25 Z M1283.59455,2058.25 L1272.72052,2061.8037 L1274.79727,2054.27685 L1266,2048.9463 L1278.15753,2047.84815 L1283.59455,2041 L1289.03156,2047.84815 L1301.18909,2048.9463 L1292.39182,2054.27685 L1294.46857,2061.8037 L1283.59455,2058.25 Z M718.594546,1897.25 L707.720518,1900.8037 L709.797273,1893.27685 L701,1887.9463 L713.157532,1886.84815 L718.594546,1880 L724.031559,1886.84815 L736.189091,1887.9463 L727.391818,1893.27685 L729.468573,1900.8037 L718.594546,1897.25 Z M87.5945456,1286.25 L76.7205184,1289.8037 L78.7972728,1282.27685 L70,1276.9463 L82.157532,1275.84815 L87.5945456,1269 L93.0315591,1275.84815 L105.189091,1276.9463 L96.3918183,1282.27685 L98.4685727,1289.8037 L87.5945456,1286.25 Z M31.5945456,1897.25 L20.7205184,1900.8037 L22.7972728,1893.27685 L14,1887.9463 L26.157532,1886.84815 L31.5945456,1880 L37.0315591,1886.84815 L49.1890911,1887.9463 L40.3918183,1893.27685 L42.4685727,1900.8037 L31.5945456,1897.25 Z M2260.66462,880.5 L2238.62267,890.697561 L2242.83231,869.09878 L2225,853.802439 L2249.64365,850.65122 L2260.66462,831 L2271.68559,850.65122 L2296.32924,853.802439 L2278.49693,869.09878 L2282.70657,890.697561 L2260.66462,880.5 Z M1836.66462,833.5 L1814.62267,843.697561 L1818.83231,822.09878 L1801,806.802439 L1825.64365,803.65122 L1836.66462,784 L1847.68559,803.65122 L1872.32924,806.802439 L1854.49693,822.09878 L1858.70657,843.697561 L1836.66462,833.5 Z M1426.66462,1124.5 L1404.62267,1134.69756 L1408.83231,1113.09878 L1391,1097.80244 L1415.64365,1094.65122 L1426.66462,1075 L1437.68559,1094.65122 L1462.32924,1097.80244 L1444.49693,1113.09878 L1448.70657,1134.69756 L1426.66462,1124.5 Z M3366,1188.5 L3343.95805,1198.69756 L3348.16769,1177.09878 L3330.33538,1161.80244 L3354.97903,1158.65122 L3366,1139 L3377.02097,1158.65122 L3401.66462,1161.80244 L3383.83231,1177.09878 L3388.04195,1198.69756 L3366,1188.5 Z M3022.5,946.825543 L3007.9762,954 L3010.75,938.804257 L2999,928.042572 L3015.2381,925.825543 L3022.5,912 L3029.7619,925.825543 L3046,928.042572 L3034.25,938.804257 L3037.0238,954 L3022.5,946.825543 Z M3627.66462,863.5 L3605.62267,873.697561 L3609.83231,852.09878 L3592,836.802439 L3616.64365,833.65122 L3627.66462,814 L3638.68559,833.65122 L3663.32924,836.802439 L3645.49693,852.09878 L3649.70657,873.697561 L3627.66462,863.5 Z M3887.66462,1653.5 L3865.62267,1663.69756 L3869.83231,1642.09878 L3852,1626.80244 L3876.64365,1623.65122 L3887.66462,1604 L3898.68559,1623.65122 L3923.32924,1626.80244 L3905.49693,1642.09878 L3909.70657,1663.69756 L3887.66462,1653.5 Z M3998.66462,1184.5 L3976.62267,1194.69756 L3980.83231,1173.09878 L3963,1157.80244 L3987.64365,1154.65122 L3998.66462,1135 L4009.68559,1154.65122 L4034.32924,1157.80244 L4016.49693,1173.09878 L4020.70657,1194.69756 L3998.66462,1184.5 Z M3686.66462,1258.5 L3664.62267,1268.69756 L3668.83231,1247.09878 L3651,1231.80244 L3675.64365,1228.65122 L3686.66462,1209 L3697.68559,1228.65122 L3722.32924,1231.80244 L3704.49693,1247.09878 L3708.70657,1268.69756 L3686.66462,1258.5 Z M3674.91268,74.0201626 L3667.80529,77.6073909 L3669.16268,70.0095195 L3663.41268,64.6286771 L3671.35898,63.5201626 L3674.91268,56.6073909 L3678.46637,63.5201626 L3686.41268,64.6286771 L3680.66268,70.0095195 L3682.02007,77.6073909 L3674.91268,74.0201626 Z M4123.5,580.412772 L4116.39261,584 L4117.75,576.402129 L4112,571.021286 L4119.9463,569.912772 L4123.5,563 L4127.0537,569.912772 L4135,571.021286 L4129.25,576.402129 L4130.60739,584 L4123.5,580.412772 Z M122.5,449.825543 L111.684405,457 L113.75,441.804257 L105,431.042572 L117.092203,428.825543 L122.5,415 L127.907797,428.825543 L140,431.042572 L131.25,441.804257 L133.315595,457 L122.5,449.825543 Z M895.5,639.825543 L884.684405,647 L886.75,631.804257 L878,621.042572 L890.092203,618.825543 L895.5,605 L900.907797,618.825543 L913,621.042572 L904.25,631.804257 L906.315595,647 L895.5,639.825543 Z M835.5,1474.82554 L824.684405,1482 L826.75,1466.80426 L818,1456.04257 L830.092203,1453.82554 L835.5,1440 L840.907797,1453.82554 L853,1456.04257 L844.25,1466.80426 L846.315595,1482 L835.5,1474.82554 Z" id="Combined-Shape"></path>
        </g>
    </g>
</svg>